<svg xmlns="http://www.w3.org/2000/svg" viewBox="-30 -30 460 460" width="460" height="460" role="img" aria-label="file text" xmlns:c2pa="http://c2pa.org/manifest"><metadata><c2pa:manifest>AAAWgmp1bWIAAAAeanVtZGMycGEAEQAQgAAAqgA4m3EDYzJwYQAAABZcanVtYgAAAEdqdW1kYzJtYQARABCAAACqADibcQN1cm46YzJwYTpmMmU2NjRjNS03NjZkLTQ4YTItYTEyOC00ZDdkOWRkMjE4OTAAAAADl2p1bWIAAAApanVtZGMyYXMAEQAQgAAAqgA4m3EDYzJwYS5hc3NlcnRpb25zAAAAALxqdW1iAAAARGp1bWRjYm9yABEAEIAAAKoAOJtxE2MycGEuaW5ncmVkaWVudC52MwAAAAAYYzJzaGf4BL9zcjq/Fa9ym41P1C0AAABwY2JvcqNpZGM6Zm9ybWF0bWltYWdlL3N2Zyt4bWxqaW5zdGFuY2VJRHgseG1wOmlpZDpjMjI0ZjY2Ny04MmFkLTRiZDktYWQ5Yy1hZTg4MTAxNDU5MmVscmVsYXRpb25zaGlwaHBhcmVudE9mAAAB4mp1bWIAAABBanVtZGNib3IAEQAQgAAAqgA4m3ETYzJwYS5hY3Rpb25zLnYyAAAAABhjMnNozX1tOHMcaAzVbkkWGFFiCgAAAZljYm9yomdhY3Rpb25zgqJmYWN0aW9ua2MycGEub3BlbmVkanBhcmFtZXRlcnOha2luZ3JlZGllbnRzgaJjdXJseC1zZWxmI2p1bWJmPWMycGEuYXNzZXJ0aW9ucy9jMnBhLmluZ3JlZGllbnQudjNkaGFzaFgge6ysHJAuXENCsWy/UvdgXWAK/18aU0175dp4as6/bOakZmFjdGlvbngdY29tLmFudGhyb3BpYy5jbGF1ZGUucHJvdmlkZWRqcGFyYW1ldGVyc6F4H2NvbS5hbnRocm9waWMub3JpZ2luLWNvbmZpZGVuY2VndW5rbm93bmtkZXNjcmlwdGlvbnhmQ2xhdWRlIHByb3ZpZGVkIHRoaXMgZmlsZSBhdCB0aGUgcmVxdWVzdCBvZiBhIHVzZXIgYW5kIG1heSBoYXZlIGNyZWF0ZWQgb3IgbW9kaWZpZWQgdGhlIGZpbGUgY29udGVudHMubXNvZnR3YXJlQWdlbnShZG5hbWVmQ2xhdWRlcmFsbEFjdGlvbnNJbmNsdWRlZPUAAADIanVtYgAAAEBqdW1kY2JvcgARABCAAACqADibcRNjMnBhLmhhc2guZGF0YQAAAAAYYzJzaOAb4ppdBG8mNnj9YZgoQAkAAACAY2JvcqVjYWxnZnNoYTI1NmNwYWRNAAAAAAAAAAAAAAAAAGRoYXNoWCAy19EC+mYz6xrzRvbE4ICjzSog5c/K1Bt9hfQNYzmF42RuYW1lbmp1bWJmIG1hbmlmZXN0amV4Y2x1c2lvbnOBomVzdGFydBi8Zmxlbmd0aBkeBAAAAj5qdW1iAAAAJ2p1bWRjMmNsABEAEIAAAKoAOJtxA2MycGEuY2xhaW0udjIAAAACD2Nib3KlY2FsZ2ZzaGEyNTZpc2lnbmF0dXJleE1zZWxmI2p1bWJmPS9jMnBhL3VybjpjMnBhOmYyZTY2NGM1LTc2NmQtNDhhMi1hMTI4LTRkN2Q5ZGQyMTg5MC9jMnBhLnNpZ25hdHVyZWppbnN0YW5jZUlEeCx4bXA6aWlkOmRkOTA0MDM4LTZmZDMtNGYzOC04OWI0LWQ1ODRmNTZkZmE5MHJjcmVhdGVkX2Fzc2VydGlvbnODomN1cmx4LXNlbGYjanVtYmY9YzJwYS5hc3NlcnRpb25zL2MycGEuaW5ncmVkaWVudC52M2RoYXNoWCB7rKwckC5cQ0KxbL9S92BdYAr/XxpTTXvl2nhqzr9s5qJjdXJseCpzZWxmI2p1bWJmPWMycGEuYXNzZXJ0aW9ucy9jMnBhLmFjdGlvbnMudjJkaGFzaFggmWpJ+CrFJQdEMEhO0f35SE9c2cGM1HP+N/By8/UqmYGiY3VybHgpc2VsZiNqdW1iZj1jMnBhLmFzc2VydGlvbnMvYzJwYS5oYXNoLmRhdGFkaGFzaFggUPBtqn66scpTbagEQEYp9/mH/KjdMuXA8jFwRsYTZ+d0Y2xhaW1fZ2VuZXJhdG9yX2luZm+jZG5hbWVvQW50aHJvcGljIEZpbGVzZ3ZlcnNpb25lMS4wLjBrc3BlY1ZlcnNpb25lMi40LjAAABA4anVtYgAAAChqdW1kYzJjcwARABCAAACqADibcQNjMnBhLnNpZ25hdHVyZQAAABAIY2JvctKEWQISogEmGCFZAgowggIGMIIBjaADAgECAhRA5aAK7sI50L64g/oGQgU9Z1UTADAKBggqhkjOPQQDAzBJMRcwFQYDVQQKEw5BbnRocm9waWMsIFBCQzEuMCwGA1UEAxMlQW50aHJvcGljIENvbnRlbnQgQ3JlZGVudGlhbHMgUm9vdCBDQTAeFw0yNjA4MDcxODQzNTZaFw0yODA4MDYxOTQzNTZaMEQxFzAVBgNVBAoTDkFudGhyb3BpYywgUEJDMSkwJwYDVQQDEyBBbnRocm9waWMgQ2xhdWRlIENvbnRlbnQgU2lnbmluZzBZMBMGByqGSM49AgEGCCqGSM49AwEHA0IABJh6CmvLUBgFFNU0vUKlOVtE6djd17L5SuwX0LemFisBM3dkd/3cyjxFA3Qo5S46fX0/ihY0VZ7mfb9KF703t5OjWDBWMA4GA1UdDwEB/wQEAwIHgDAVBgNVHSUEDjAMBgorBgEEAYPoXgIBMAwGA1UdEwEB/wQCMAAwHwYDVR0jBBgwFoAUzlHiBIFOZFsj+OPEz5o+nMHXXMIwCgYIKoZIzj0EAwMDZwAwZAIwMXMdFJ4BetLLVY7ORuE9noqbbAZOZn/aArXyTwFAZfKrPzxF2vPoJNf1+UCdg1XGAjBwX1zd9WGqYkqmL5SFqw1QySjr1zJfpJM9+1rdDwSPLMOPOjKuiXjoU/pUUeG9RwmhY3BhZFkNngAAAAAAAAAAAAAAAAAAAAAAAAAAAAAAAAAAAAAAAAAAAAAAAAAAAAAAAAAAAAAAAAAAAAAAAAAAAAAAAAAAAAAAAAAAAAAAAAAAAAAAAAAAAAAAAAAAAAAAAAAAAAAAAAAAAAAAAAAAAAAAAAAAAAAAAAAAAAAAAAAAAAAAAAAAAAAAAAAAAAAAAAAAAAAAAAAAAAAAAAAAAAAAAAAAAAAAAAAAAAAAAAAAAAAAAAAAAAAAAAAAAAAAAAAAAAAAAAAAAAAAAAAAAAAAAAAAAAAAAAAAAAAAAAAAAAAAAAAAAAAAAAAAAAAAAAAAAAAAAAAAAAAAAAAAAAAAAAAAAAAAAAAAAAAAAAAAAAAAAAAAAAAAAAAAAAAAAAAAAAAAAAAAAAAAAAAAAAAAAAAAAAAAAAAAAAAAAAAAAAAAAAAAAAAAAAAAAAAAAAAAAAAAAAAAAAAAAAAAAAAAAAAAAAAAAAAAAAAAAAAAAAAAAAAAAAAAAAAAAAAAAAAAAAAAAAAAAAAAAAAAAAAAAAAAAAAAAAAAAAAAAAAAAAAAAAAAAAAAAAAAAAAAAAAAAAAAAAAAAAAAAAAAAAAAAAAAAAAAAAAAAAAAAAAAAAAAAAAAAAAAAAAAAAAAAAAAAAAAAAAAAAAAAAAAAAAAAAAAAAAAAAAAAAAAAAAAAAAAAAAAAAAAAAAAAAAAAAAAAAAAAAAAAAAAAAAAAAAAAAAAAAAAAAAAAAAAAAAAAAAAAAAAAAAAAAAAAAAAAAAAAAAAAAAAAAAAAAAAAAAAAAAAAAAAAAAAAAAAAAAAAAAAAAAAAAAAAAAAAAAAAAAAAAAAAAAAAAAAAAAAAAAAAAAAAAAAAAAAAAAAAAAAAAAAAAAAAAAAAAAAAAAAAAAAAAAAAAAAAAAAAAAAAAAAAAAAAAAAAAAAAAAAAAAAAAAAAAAAAAAAAAAAAAAAAAAAAAAAAAAAAAAAAAAAAAAAAAAAAAAAAAAAAAAAAAAAAAAAAAAAAAAAAAAAAAAAAAAAAAAAAAAAAAAAAAAAAAAAAAAAAAAAAAAAAAAAAAAAAAAAAAAAAAAAAAAAAAAAAAAAAAAAAAAAAAAAAAAAAAAAAAAAAAAAAAAAAAAAAAAAAAAAAAAAAAAAAAAAAAAAAAAAAAAAAAAAAAAAAAAAAAAAAAAAAAAAAAAAAAAAAAAAAAAAAAAAAAAAAAAAAAAAAAAAAAAAAAAAAAAAAAAAAAAAAAAAAAAAAAAAAAAAAAAAAAAAAAAAAAAAAAAAAAAAAAAAAAAAAAAAAAAAAAAAAAAAAAAAAAAAAAAAAAAAAAAAAAAAAAAAAAAAAAAAAAAAAAAAAAAAAAAAAAAAAAAAAAAAAAAAAAAAAAAAAAAAAAAAAAAAAAAAAAAAAAAAAAAAAAAAAAAAAAAAAAAAAAAAAAAAAAAAAAAAAAAAAAAAAAAAAAAAAAAAAAAAAAAAAAAAAAAAAAAAAAAAAAAAAAAAAAAAAAAAAAAAAAAAAAAAAAAAAAAAAAAAAAAAAAAAAAAAAAAAAAAAAAAAAAAAAAAAAAAAAAAAAAAAAAAAAAAAAAAAAAAAAAAAAAAAAAAAAAAAAAAAAAAAAAAAAAAAAAAAAAAAAAAAAAAAAAAAAAAAAAAAAAAAAAAAAAAAAAAAAAAAAAAAAAAAAAAAAAAAAAAAAAAAAAAAAAAAAAAAAAAAAAAAAAAAAAAAAAAAAAAAAAAAAAAAAAAAAAAAAAAAAAAAAAAAAAAAAAAAAAAAAAAAAAAAAAAAAAAAAAAAAAAAAAAAAAAAAAAAAAAAAAAAAAAAAAAAAAAAAAAAAAAAAAAAAAAAAAAAAAAAAAAAAAAAAAAAAAAAAAAAAAAAAAAAAAAAAAAAAAAAAAAAAAAAAAAAAAAAAAAAAAAAAAAAAAAAAAAAAAAAAAAAAAAAAAAAAAAAAAAAAAAAAAAAAAAAAAAAAAAAAAAAAAAAAAAAAAAAAAAAAAAAAAAAAAAAAAAAAAAAAAAAAAAAAAAAAAAAAAAAAAAAAAAAAAAAAAAAAAAAAAAAAAAAAAAAAAAAAAAAAAAAAAAAAAAAAAAAAAAAAAAAAAAAAAAAAAAAAAAAAAAAAAAAAAAAAAAAAAAAAAAAAAAAAAAAAAAAAAAAAAAAAAAAAAAAAAAAAAAAAAAAAAAAAAAAAAAAAAAAAAAAAAAAAAAAAAAAAAAAAAAAAAAAAAAAAAAAAAAAAAAAAAAAAAAAAAAAAAAAAAAAAAAAAAAAAAAAAAAAAAAAAAAAAAAAAAAAAAAAAAAAAAAAAAAAAAAAAAAAAAAAAAAAAAAAAAAAAAAAAAAAAAAAAAAAAAAAAAAAAAAAAAAAAAAAAAAAAAAAAAAAAAAAAAAAAAAAAAAAAAAAAAAAAAAAAAAAAAAAAAAAAAAAAAAAAAAAAAAAAAAAAAAAAAAAAAAAAAAAAAAAAAAAAAAAAAAAAAAAAAAAAAAAAAAAAAAAAAAAAAAAAAAAAAAAAAAAAAAAAAAAAAAAAAAAAAAAAAAAAAAAAAAAAAAAAAAAAAAAAAAAAAAAAAAAAAAAAAAAAAAAAAAAAAAAAAAAAAAAAAAAAAAAAAAAAAAAAAAAAAAAAAAAAAAAAAAAAAAAAAAAAAAAAAAAAAAAAAAAAAAAAAAAAAAAAAAAAAAAAAAAAAAAAAAAAAAAAAAAAAAAAAAAAAAAAAAAAAAAAAAAAAAAAAAAAAAAAAAAAAAAAAAAAAAAAAAAAAAAAAAAAAAAAAAAAAAAAAAAAAAAAAAAAAAAAAAAAAAAAAAAAAAAAAAAAAAAAAAAAAAAAAAAAAAAAAAAAAAAAAAAAAAAAAAAAAAAAAAAAAAAAAAAAAAAAAAAAAAAAAAAAAAAAAAAAAAAAAAAAAAAAAAAAAAAAAAAAAAAAAAAAAAAAAAAAAAAAAAAAAAAAAAAAAAAAAAAAAAAAAAAAAAAAAAAAAAAAAAAAAAAAAAAAAAAAAAAAAAAAAAAAAAAAAAAAAAAAAAAAAAAAAAAAAAAAAAAAAAAAAAAAAAAAAAAAAAAAAAAAAAAAAAAAAAAAAAAAAAAAAAAAAAAAAAAAAAAAAAAAAAAAAAAAAAAAAAAAAAAAAAAAAAAAAAAAAAAAAAAAAAAAAAAAAAAAAAAAAAAAAAAAAAAAAAAAAAAAAAAAAAAAAAAAAAAAAAAAAAAAAAAAAAAAAAAAAAAAAAAAAAAAAAAAAAAAAAAAAAAAAAAAAAAAAAAAAAAAAAAAAAAAAAAAAAAAAAAAAAAAAAAAAAAAAAAAAAAAAAAAAAAAAAAAAAAAAAAAAAAAAAAAAAAAAAAAAAAAAAAAAAAAAAAAAAAAAAAAAAAAAAAAAAAAAAAAAAAAAAAAAAAAAAAAAAAAAAAAAAAAAAAAAAAAAAAAAAAAAAAAAAAAAAAAAAAAAAAAAAAAAAAAAAAAAAAAAAAAAAAAAAAAAAAAAAAAAAAAAAAAAAAAAAAAAAAAAAAAAAAAAAAAAAAAAAAAAAAAAAAAAAAAAAAAAAAAAAAAAAAAAAAAAAAAAAAAAAAAAAAAAAAAAAAAAAAAAAAAAAAAAAAAAAAAAAAAAAAAAAAAAAAAAAAAAAAAAAAAAAAAAAAAAAAAAAAAAAAAAAAAAAAAAAAAAAAAAAAAAAAAAAAAAAAAAAAAAAAAAAAAAAAAAAAAAAAAAAAAAAAAAAAAAAAAAAAAAAAAAAAAAAAAAAAAAAAAAAAAAAAAAAAAAAAAAAAAAAAAAAAAAAAAAAAAAAAAAAAAAAAAAAAAAAAAAAAAAAAAAAAAAAAAAAAAAAAAAAAAAAAAAAAAAAAAAAAAAAAAAAAAAAAAAAAAAAAAAAAAAAAAAAAAAAAAAAAAAAAAAAAAAAAAAAAAAAAAAAAAAAAAAAAAAAAAAAAAAAAAAAAAAAAAAAAAAAAAAAAAAAAAAAAAAAAAAAAAAAAAAAAAAAAAAAAAAAAAAAAAAAAAAAAAAAAAAAAAAAAAAAAAAAAAAAAAAAAAAAAAAAAAAAAAAAAAAAAAAAAAAAAAAAAAAAAAAAAAAAAAAAAAAAAAAAAAAAAAAAAAAAAAAAAAAAAAAAAAAAAAAAAAAAAAAAAAAAAAAAAAAAAAAAAAAAAAAAAAAAAAAAAAAAAAAAAAAAAAAAAAAAAAAAAAAAAAAAAAAAAAAAAAAAAAAAAAAAAAAAAAAAAAAAAAAAAAAAAAAAAAAAAAAAAAAAAAAAAAAAAAAAAAAAAAAAAAAAAAAAAAAAAAAAAAAAAAAAAAAAAAAAAAAAAAAAAAAAAAAAAAAAAAAAAAAAAAAAAAAAAAAAAAAAAAAAAAAAAAAAAAAAAAAAAAAAAAAAAAAAAAAAAAAAAAAAAAAAAAAAAAAAAAAAAAAAAAAAAAAAAAAAAAAAAAAAAAAAAAAAAAAAAAAAAAAAAAAAAAAAAAAAAAAAAAAAAAAAAAAAAAAAAAAAAAAAAAAAAAAAAAAAAAAAAAAAAAAAAAAAAAAAAAAAAAAAAAAAAAAAAAAAAAAAAAAAAAAAAAAAAAAAAAAAAAAAAAAAAAAAAAAAAAAAAAAAAAAAAAAAAAAAAAAAAAAAAAAAAAAAAAAAAAAAAAAAAAAAAAAAAAAAAAAAAAAAAAAAAAAAAAAAAAAAAAAAAAAAAAAAAAAAAAAAAAAAAAAAAAPZYQANA6V/2IIZcvN7JqQIpwhwvAW/Sn/H3Cb4PdDbTq6F48KJxvM0WDhIFzTNUwiXOGN57+SuKhavClGObBuEdkfU=</c2pa:manifest></metadata>
  <g fill="none" stroke-linecap="round" stroke-linejoin="round">
    <g stroke="#fff"><path d="M103.9,52.7 L106.9,52.8 L109.8,52.8 L112.7,52.9 L115.7,53 L118.6,53.1 L121.6,53.1 L124.5,53.3 L127.5,53.4 L130.4,53.5 L133.4,53.6 L136.4,53.8 L139.4,53.9 L142.4,54 L145.3,54.1 L148.3,54.3 L151.3,54.4 L154.3,54.5 L157.3,54.6 L160.3,54.6 L163.3,54.7 L166.3,54.7 L169.3,54.7 L172.2,54.7 L175.2,54.7 L178.2,54.6 L181.2,54.5 L184.1,54.4 L187.1,54.2 L190.1,54.1 L193,53.9 L196,53.6 L198.9,53.4 L201.9,53.1 L204.8,52.8 L207.8,52.5 L210.7,52.2 L213.7,51.8 L216.6,51.5 L219.6,51.1 L222.5,50.8 L225.2,51.2 L227.5,53.1 L229.7,55 L232,56.9 L234.3,58.7 L236.6,60.7 L239,62.6 L241.3,64.6 L243.6,66.5 L246,68.6 L248.4,70.6 L250.7,72.7 L253.1,74.8 L255.4,77 L257.8,79.2 L260.2,81.4 L262.5,83.7 L264.9,86 L267.2,88.3 L269.6,90.6 L271.9,92.9 L274.3,95.3 L276.6,97.6 L278.9,100 L281.2,102.3 L283.4,104.6 L285.7,106.9 L288,109.2 L290.2,111.5 L292.4,113.7 L294.6,115.9 L296.8,118 L298.9,120.2 L301.1,122.3 L303.2,124.3 L305.3,126.3 L307.4,128.3 L309.5,130.3 L311.5,132.2 L313.6,134.1 L315.6,136 L315.8,138.8 L315.7,141.8 L315.5,144.8 L315.4,147.7 L315.2,150.7 L314.9,153.7 L314.7,156.7 L314.4,159.7 L314.1,162.7 L313.8,165.7 L313.4,168.7 L313.1,171.8 L312.8,174.8 L312.5,177.9 L312.1,180.9 L311.8,184 L311.5,187.1 L311.2,190.2 L310.9,193.3 L310.6,196.4 L310.4,199.6 L310.2,202.7 L310,205.8 L309.8,209 L309.7,212.2 L309.6,215.4 L309.5,218.5 L309.5,221.7 L309.5,224.9 L309.5,228.1 L309.5,231.3 L309.5,234.5 L309.6,237.7 L309.7,241 L309.8,244.2 L309.9,247.4 L310,250.6 L310.1,253.8 L310.3,257 L310.4,260.2 L310.5,263.3 L310.6,266.5 L310.7,269.7 L310.8,272.8 L310.8,275.9 L310.9,279.1 L310.9,282.2 L310.9,285.3 L310.9,288.3 L310.9,291.4 L310.8,294.4 L310.8,297.5 L310.7,300.5 L310.6,303.5 L310.5,306.4 L310.3,309.4 L310.2,312.3 L310.1,315.2 L309.9,318.1 L309.8,321 L309.6,323.8 L309.5,326.7 L309.4,329.5 L309.3,332.3 L309.2,335.1 L309.1,337.9 L309.1,340.7 L309,343.4 L306.2,343.7 L303,343.6 L299.8,343.5 L296.6,343.4 L293.5,343.3 L290.4,343.1 L287.3,343 L284.2,342.8 L281.2,342.6 L278.2,342.3 L275.2,342.1 L272.2,341.8 L269.2,341.5 L266.3,341.3 L263.4,341 L260.5,340.7 L257.7,340.4 L254.8,340.1 L252,339.8 L249.2,339.5 L246.4,339.2 L243.6,339 L240.9,338.7 L238.1,338.5 L235.3,338.3 L232.6,338.2 L229.9,338.1 L227.1,338 L224.4,337.9 L221.7,337.9 L218.9,337.9 L216.2,337.9 L213.4,338 L210.7,338.1 L207.9,338.2 L205.2,338.4 L202.4,338.6 L199.6,338.9 L196.8,339.2 L194,339.5 L191.2,339.8 L188.3,340.1 L185.5,340.5 L182.6,340.8 L179.7,341.2 L176.8,341.6 L173.9,342 L170.9,342.3 L168,342.7 L165,343.1 L162,343.4 L159,343.7 L156,344 L152.9,344.3 L149.9,344.6 L146.8,344.8 L143.8,345 L140.7,345.2 L137.6,345.3 L134.5,345.4 L131.4,345.5 L128.3,345.5 L125.1,345.5 L122,345.5 L118.9,345.4 L115.8,345.4 L112.6,345.3 L109.5,345.1 L106.4,345 L105.2,343 L105.2,339.8 L105.3,336.7 L105.4,333.5 L105.5,330.3 L105.6,327.1 L105.7,323.8 L105.8,320.6 L106,317.4 L106.1,314.2 L106.2,311 L106.2,307.8 L106.3,304.6 L106.4,301.4 L106.4,298.2 L106.4,295 L106.4,291.8 L106.4,288.6 L106.3,285.5 L106.2,282.3 L106.1,279.2 L105.9,276 L105.8,272.9 L105.6,269.8 L105.3,266.7 L105.1,263.6 L104.8,260.5 L104.5,257.4 L104.2,254.3 L103.9,251.3 L103.6,248.3 L103.2,245.2 L102.9,242.2 L102.6,239.2 L102.3,236.2 L101.9,233.2 L101.6,230.2 L101.4,227.2 L101.1,224.3 L100.9,221.3 L100.6,218.3 L100.4,215.4 L100.3,212.4 L100.2,209.5 L100.1,206.5 L100,203.6 L100,200.6 L100,197.7 L100,194.7 L100.1,191.8 L100.2,188.8 L100.3,185.9 L100.4,182.9 L100.6,180 L100.8,177 L101,174 L101.2,171.1 L101.4,168.1 L101.7,165.1 L101.9,162.1 L102.1,159.2 L102.3,156.2 L102.5,153.2 L102.7,150.2 L102.9,147.2 L103.1,144.2 L103.3,141.2 L103.4,138.2 L103.5,135.2 L103.6,132.2 L103.7,129.2 L103.8,126.2 L103.8,123.2 L103.8,120.2 L103.8,117.2 L103.8,114.2 L103.7,111.2 L103.7,108.2 L103.6,105.3 L103.6,102.3 L103.5,99.3 L103.4,96.4 L103.3,93.4 L103.3,90.5 L103.2,87.5 L103.2,84.6 L103.1,81.6 L103.1,78.7 L103.1,75.8 L103.1,72.9 L103.2,70 L103.3,67.1 L103.3,64.2 L103.5,61.4 L103.6,58.5 L103.8,55.6 Z" fill="#fff" stroke-width="60"/><path d="M224.4,50.6 L224.6,53.6 L224.8,56.6 L225,59.6 L225.2,62.6 L225.4,65.6 L225.6,68.7 L225.7,71.7 L225.8,74.8 L225.9,77.8 L226,80.9 L226,84 L226,87.1 L226,90.2 L226,93.3 L226,96.4 L226,99.5 L225.9,102.6 L225.8,105.8 L225.8,108.9 L225.7,112.1 L225.6,115.2 L225.6,118.4 L225.5,121.6 L225.5,124.8 L225.4,128 L225.4,131.2 L225.4,134.4 L225.4,137.6 L227.1,139.2 L230.3,139.3 L233.6,139.3 L236.8,139.4 L240.1,139.4 L243.4,139.5 L246.7,139.5 L249.9,139.5 L253.2,139.6 L256.5,139.6 L259.7,139.6 L263,139.5 L266.3,139.5 L269.5,139.4 L272.7,139.4 L275.9,139.3 L279.1,139.2 L282.3,139 L285.5,138.8 L288.6,138.7 L291.7,138.5 L294.8,138.2 L297.9,138 L301,137.7 L304,137.5 L307,137.2 L310,136.9 L312.9,136.6 L315.9,136.3" fill="none" stroke-width="54"/><path d="M147.2,210 L150.5,210.1 L153.8,210.2 L157.1,210.3 L160.4,210.5 L163.7,210.7 L167,210.9 L170.3,211.2 L173.6,211.5 L176.9,211.8 L180.2,212.1 L183.5,212.5 L186.7,212.9 L190,213.2 L193.2,213.6 L196.4,214 L199.6,214.4 L202.8,214.8 L205.9,215.1 L209,215.5 L212.1,215.8 L215.2,216.1 L218.2,216.4 L221.3,216.7 L224.3,216.9 L227.3,217.1 L230.2,217.3 L233.1,217.5 L236,217.6 L238.9,217.7 L241.8,217.7 L244.6,217.7 L247.5,217.7 L250.3,217.7 L253,217.6 L255.8,217.5 L258.6,217.4 L261.3,217.2 L264.1,217 L266.8,216.8 L269.5,216.6" fill="none" stroke-width="56"/><path d="M149.8,267.6 L152.8,267.7 L155.7,267.8 L158.7,267.9 L161.6,268 L164.5,268.1 L167.5,268.3 L170.4,268.4 L173.4,268.5 L176.3,268.6 L179.2,268.7 L182.2,268.8 L185.1,268.9 L188.1,269 L191,269.1 L194,269.1 L196.9,269.2 L199.9,269.2 L202.9,269.2 L205.8,269.2 L208.8,269.2 L211.8,269.2 L214.8,269.2 L217.7,269.2 L220.7,269.2 L223.7,269.2 L226.7,269.1 L229.7,269.1 L232.7,269.1 L235.7,269.1 L238.7,269.1 L241.6,269.1 L244.6,269.1 L247.6,269.2 L250.6,269.2 L253.5,269.3 L256.5,269.4 L259.5,269.5 L262.4,269.6 L265.4,269.8 L268.3,269.9" fill="none" stroke-width="56"/><path d="M152.1,323.6 L155.1,323.4 L158.2,323.2 L161.2,323 L164.2,322.8 L167.1,322.5 L170.1,322.3 L173,322 L175.9,321.7 L178.7,321.4 L181.6,321 L184.4,320.7 L187.2,320.4 L190,320.1 L192.8,319.8 L195.6,319.5 L198.3,319.2 L201.1,318.9 L203.8,318.7 L206.5,318.4 L209.3,318.3 L212,318.1" fill="none" stroke-width="56"/></g>
    <g stroke="#151515"><path d="M103.9,52.7 L106.9,52.8 L109.8,52.8 L112.7,52.9 L115.7,53 L118.6,53.1 L121.6,53.1 L124.5,53.3 L127.5,53.4 L130.4,53.5 L133.4,53.6 L136.4,53.8 L139.4,53.9 L142.4,54 L145.3,54.1 L148.3,54.3 L151.3,54.4 L154.3,54.5 L157.3,54.6 L160.3,54.6 L163.3,54.7 L166.3,54.7 L169.3,54.7 L172.2,54.7 L175.2,54.7 L178.2,54.6 L181.2,54.5 L184.1,54.4 L187.1,54.2 L190.1,54.1 L193,53.9 L196,53.6 L198.9,53.4 L201.9,53.1 L204.8,52.8 L207.8,52.5 L210.7,52.2 L213.7,51.8 L216.6,51.5 L219.6,51.1 L222.5,50.8 L225.2,51.2 L227.5,53.1 L229.7,55 L232,56.9 L234.3,58.7 L236.6,60.7 L239,62.6 L241.3,64.6 L243.6,66.5 L246,68.6 L248.4,70.6 L250.7,72.7 L253.1,74.8 L255.4,77 L257.8,79.2 L260.2,81.4 L262.5,83.7 L264.9,86 L267.2,88.3 L269.6,90.6 L271.9,92.9 L274.3,95.3 L276.6,97.6 L278.9,100 L281.2,102.3 L283.4,104.6 L285.7,106.9 L288,109.2 L290.2,111.5 L292.4,113.7 L294.6,115.9 L296.8,118 L298.9,120.2 L301.1,122.3 L303.2,124.3 L305.3,126.3 L307.4,128.3 L309.5,130.3 L311.5,132.2 L313.6,134.1 L315.6,136 L315.8,138.8 L315.7,141.8 L315.5,144.8 L315.4,147.7 L315.2,150.7 L314.9,153.7 L314.7,156.7 L314.4,159.7 L314.1,162.7 L313.8,165.7 L313.4,168.7 L313.1,171.8 L312.8,174.8 L312.5,177.9 L312.1,180.9 L311.8,184 L311.5,187.1 L311.2,190.2 L310.9,193.3 L310.6,196.4 L310.4,199.6 L310.2,202.7 L310,205.8 L309.8,209 L309.7,212.2 L309.6,215.4 L309.5,218.5 L309.5,221.7 L309.5,224.9 L309.5,228.1 L309.5,231.3 L309.5,234.5 L309.6,237.7 L309.7,241 L309.8,244.2 L309.9,247.4 L310,250.6 L310.1,253.8 L310.3,257 L310.4,260.2 L310.5,263.3 L310.6,266.5 L310.7,269.7 L310.8,272.8 L310.8,275.9 L310.9,279.1 L310.9,282.2 L310.9,285.3 L310.9,288.3 L310.9,291.4 L310.8,294.4 L310.8,297.5 L310.7,300.5 L310.6,303.5 L310.5,306.4 L310.3,309.4 L310.2,312.3 L310.1,315.2 L309.9,318.1 L309.8,321 L309.6,323.8 L309.5,326.7 L309.4,329.5 L309.3,332.3 L309.2,335.1 L309.1,337.9 L309.1,340.7 L309,343.4 L306.2,343.7 L303,343.6 L299.8,343.5 L296.6,343.4 L293.5,343.3 L290.4,343.1 L287.3,343 L284.2,342.8 L281.2,342.6 L278.2,342.3 L275.2,342.1 L272.2,341.8 L269.2,341.5 L266.3,341.3 L263.4,341 L260.5,340.7 L257.7,340.4 L254.8,340.1 L252,339.8 L249.2,339.5 L246.4,339.2 L243.6,339 L240.9,338.7 L238.1,338.5 L235.3,338.3 L232.6,338.2 L229.9,338.1 L227.1,338 L224.4,337.9 L221.7,337.9 L218.9,337.9 L216.2,337.9 L213.4,338 L210.7,338.1 L207.9,338.2 L205.2,338.4 L202.4,338.6 L199.6,338.9 L196.8,339.2 L194,339.5 L191.2,339.8 L188.3,340.1 L185.5,340.5 L182.6,340.8 L179.7,341.2 L176.8,341.6 L173.9,342 L170.9,342.3 L168,342.7 L165,343.1 L162,343.4 L159,343.7 L156,344 L152.9,344.3 L149.9,344.6 L146.8,344.8 L143.8,345 L140.7,345.2 L137.6,345.3 L134.5,345.4 L131.4,345.5 L128.3,345.5 L125.1,345.5 L122,345.5 L118.9,345.4 L115.8,345.4 L112.6,345.3 L109.5,345.1 L106.4,345 L105.2,343 L105.2,339.8 L105.3,336.7 L105.4,333.5 L105.5,330.3 L105.6,327.1 L105.7,323.8 L105.8,320.6 L106,317.4 L106.1,314.2 L106.2,311 L106.2,307.8 L106.3,304.6 L106.4,301.4 L106.4,298.2 L106.4,295 L106.4,291.8 L106.4,288.6 L106.3,285.5 L106.2,282.3 L106.1,279.2 L105.9,276 L105.8,272.9 L105.6,269.8 L105.3,266.7 L105.1,263.6 L104.8,260.5 L104.5,257.4 L104.2,254.3 L103.9,251.3 L103.6,248.3 L103.2,245.2 L102.9,242.2 L102.6,239.2 L102.3,236.2 L101.9,233.2 L101.6,230.2 L101.4,227.2 L101.1,224.3 L100.9,221.3 L100.6,218.3 L100.4,215.4 L100.3,212.4 L100.2,209.5 L100.1,206.5 L100,203.6 L100,200.6 L100,197.7 L100,194.7 L100.1,191.8 L100.2,188.8 L100.3,185.9 L100.4,182.9 L100.6,180 L100.8,177 L101,174 L101.2,171.1 L101.4,168.1 L101.7,165.1 L101.9,162.1 L102.1,159.2 L102.3,156.2 L102.5,153.2 L102.7,150.2 L102.9,147.2 L103.1,144.2 L103.3,141.2 L103.4,138.2 L103.5,135.2 L103.6,132.2 L103.7,129.2 L103.8,126.2 L103.8,123.2 L103.8,120.2 L103.8,117.2 L103.8,114.2 L103.7,111.2 L103.7,108.2 L103.6,105.3 L103.6,102.3 L103.5,99.3 L103.4,96.4 L103.3,93.4 L103.3,90.5 L103.2,87.5 L103.2,84.6 L103.1,81.6 L103.1,78.7 L103.1,75.8 L103.1,72.9 L103.2,70 L103.3,67.1 L103.3,64.2 L103.5,61.4 L103.6,58.5 L103.8,55.6 Z" fill="#fff" stroke-width="30"/><path d="M224.4,50.6 L224.6,53.6 L224.8,56.6 L225,59.6 L225.2,62.6 L225.4,65.6 L225.6,68.7 L225.7,71.7 L225.8,74.8 L225.9,77.8 L226,80.9 L226,84 L226,87.1 L226,90.2 L226,93.3 L226,96.4 L226,99.5 L225.9,102.6 L225.8,105.8 L225.8,108.9 L225.7,112.1 L225.6,115.2 L225.6,118.4 L225.5,121.6 L225.5,124.8 L225.4,128 L225.4,131.2 L225.4,134.4 L225.4,137.6 L227.1,139.2 L230.3,139.3 L233.6,139.3 L236.8,139.4 L240.1,139.4 L243.4,139.5 L246.7,139.5 L249.9,139.5 L253.2,139.6 L256.5,139.6 L259.7,139.6 L263,139.5 L266.3,139.5 L269.5,139.4 L272.7,139.4 L275.9,139.3 L279.1,139.2 L282.3,139 L285.5,138.8 L288.6,138.7 L291.7,138.5 L294.8,138.2 L297.9,138 L301,137.7 L304,137.5 L307,137.2 L310,136.9 L312.9,136.6 L315.9,136.3" fill="#fff" stroke-width="24"/><path d="M147.2,210 L150.5,210.1 L153.8,210.2 L157.1,210.3 L160.4,210.5 L163.7,210.7 L167,210.9 L170.3,211.2 L173.6,211.5 L176.9,211.8 L180.2,212.1 L183.5,212.5 L186.7,212.9 L190,213.2 L193.2,213.6 L196.4,214 L199.6,214.4 L202.8,214.8 L205.9,215.1 L209,215.5 L212.1,215.8 L215.2,216.1 L218.2,216.4 L221.3,216.7 L224.3,216.9 L227.3,217.1 L230.2,217.3 L233.1,217.5 L236,217.6 L238.9,217.7 L241.8,217.7 L244.6,217.7 L247.5,217.7 L250.3,217.7 L253,217.6 L255.8,217.5 L258.6,217.4 L261.3,217.2 L264.1,217 L266.8,216.8 L269.5,216.6" fill="none" stroke-width="26"/><path d="M149.8,267.6 L152.8,267.7 L155.7,267.8 L158.7,267.9 L161.6,268 L164.5,268.1 L167.5,268.3 L170.4,268.4 L173.4,268.5 L176.3,268.6 L179.2,268.7 L182.2,268.8 L185.1,268.9 L188.1,269 L191,269.1 L194,269.1 L196.9,269.2 L199.9,269.2 L202.9,269.2 L205.8,269.2 L208.8,269.2 L211.8,269.2 L214.8,269.2 L217.7,269.2 L220.7,269.2 L223.7,269.2 L226.7,269.1 L229.7,269.1 L232.7,269.1 L235.7,269.1 L238.7,269.1 L241.6,269.1 L244.6,269.1 L247.6,269.2 L250.6,269.2 L253.5,269.3 L256.5,269.4 L259.5,269.5 L262.4,269.6 L265.4,269.8 L268.3,269.9" fill="none" stroke-width="26"/><path d="M152.1,323.6 L155.1,323.4 L158.2,323.2 L161.2,323 L164.2,322.8 L167.1,322.5 L170.1,322.3 L173,322 L175.9,321.7 L178.7,321.4 L181.6,321 L184.4,320.7 L187.2,320.4 L190,320.1 L192.8,319.8 L195.6,319.5 L198.3,319.2 L201.1,318.9 L203.8,318.7 L206.5,318.4 L209.3,318.3 L212,318.1" fill="none" stroke-width="26"/></g>
  </g>
</svg>